<svg width="1080" height="1080" viewBox="0 0 1080 1080"><defs><style>.cls-1{fill:#231f20;opacity:0;}.cls-2{fill:none;stroke:#231f20;stroke-miterlimit:10;}</style></defs><g id="BASE"><rect class="cls-1" width="1080" height="1080"/></g><g id="MAIN"><path fill="none" class="cls-2" d="M190,330C371.41,134.43,619.21,67.12,766.53,148.89c235.56,130.76,222.89,645.49-17.86,778.57C545.19,1040,171.22,884,145.1,666.75,123.65,488.31,335.93,260.32,539.74,284.61c101.07,12,232.23,90,250,219.64,14,102.43-48.2,196.67-121.42,244.64C570.42,813,403.6,826.73,343.32,731,289.74,646,331.1,491.63,439.74,450.68c91.39-34.45,180.22,30.24,187.5,35.71"/></g></svg>